<?xml version="1.0" encoding="UTF-8" standalone="no"?>
<!-- Created with Inkscape (http://www.inkscape.org/) -->

<svg
   xmlns:dc="http://purl.org/dc/elements/1.1/"
   xmlns:cc="http://creativecommons.org/ns#"
   xmlns:rdf="http://www.w3.org/1999/02/22-rdf-syntax-ns#"
   xmlns:svg="http://www.w3.org/2000/svg"
   xmlns="http://www.w3.org/2000/svg"
   xmlns:sodipodi="http://sodipodi.sourceforge.net/DTD/sodipodi-0.dtd"
   xmlns:inkscape="http://www.inkscape.org/namespaces/inkscape"
   width="300mm"
   height="200mm"
   viewBox="0 0 1062.9922 708.6614"
   id="svg3372"
   version="1.1"
   inkscape:version="0.91 r13725"
   sodipodi:docname="PopUpTree.svg">
  <defs
     id="defs3374" />
  <sodipodi:namedview
     id="base"
     pagecolor="#ffffff"
     bordercolor="#666666"
     borderopacity="1.0"
     inkscape:pageopacity="0.0"
     inkscape:pageshadow="2"
     inkscape:zoom="0.218997"
     inkscape:cx="1435.7818"
     inkscape:cy="614.87753"
     inkscape:document-units="mm"
     inkscape:current-layer="layer1"
     showgrid="false"
     inkscape:window-width="1024"
     inkscape:window-height="551"
     inkscape:window-x="0"
     inkscape:window-y="0"
     inkscape:window-maximized="1" />
  <metadata
     id="metadata3377">
    <rdf:RDF>
      <cc:Work
         rdf:about="">
        <dc:format>image/svg+xml</dc:format>
        <dc:type
           rdf:resource="http://purl.org/dc/dcmitype/StillImage" />
        <dc:title></dc:title>
      </cc:Work>
    </rdf:RDF>
  </metadata>
  <g
     inkscape:label="Layer 1"
     inkscape:groupmode="layer"
     id="layer1"
     transform="translate(0,-343.70081)">
    <g
       id="g3425"
       transform="translate(-549.23631,368.94942)"
       style="stroke:#0000ff">
      <g
         transform="translate(593.72188,63.975878)"
         id="g4306"
         style="stroke:#0000ff">
        <path
           style="fill:none;fill-rule:evenodd;stroke:#0000ff;stroke-width:0.53474456;stroke-linecap:butt;stroke-linejoin:miter;stroke-miterlimit:4;stroke-dasharray:none;stroke-opacity:1"
           d="m 287.64262,219.93697 c 18.42982,18.05948 15.37038,48.32031 -2.61639,65.46907 -22.84242,21.77818 -59.75584,17.68679 -80.39246,-4.95543 -25.1518,-27.59624 -20.0168,-71.20903 7.29448,-95.31586 32.33415,-28.54036 82.67305,-22.35522 110.23924,9.63352 31.93845,37.06246 24.69922,94.14423 -11.97256,125.16264 -41.78453,35.34296 -105.62037,27.04707 -140.08603,-14.3116 -38.75203,-46.50232 -29.39771,-117.10013 16.65065,-155.00943 51.21704,-42.16441 128.58258,-31.75041 169.93281,18.98969 45.5793,55.92951 34.10469,140.0671 -21.32873,184.8562 C 274.72337,403.4519 183.81038,390.91598 135.58403,330.788 83.169567,265.43834 96.767337,167.74731 161.59084,116.08502 231.64885,60.250982 336.12003,74.911029 391.21723,144.43087 450.47181,219.19636 434.74915,330.44942 360.53234,388.98064 281.06005,451.6566 163.0237,434.87103 101.05917,355.95671 34.961147,271.77823 52.809853,146.95738 136.42214,81.560142 c 88.8842,-69.520651 220.49053,-50.608617 289.31995,37.702018 72.22975,92.67339 53.46652,229.56193 -37.6704,302.37557"
           id="path3338"
           inkscape:connector-curvature="0"
           sodipodi:nodetypes="cssssssssssssssssc" />
        <path
           style="fill:none;fill-rule:evenodd;stroke:#0000ff;stroke-width:0.53474456;stroke-linecap:butt;stroke-linejoin:miter;stroke-miterlimit:4;stroke-dasharray:none;stroke-opacity:1"
           d="m 222.97887,267.59116 c -18.42981,-18.05949 -15.37039,-48.3203 2.61639,-65.46907 22.84242,-21.77817 59.75585,-17.6868 80.39247,4.95544 25.15179,27.59623 20.01679,71.20903 -7.29448,95.31585 -32.33416,28.54036 -82.67306,22.35523 -110.23925,-9.63352 -31.93845,-37.06246 -24.69922,-94.14422 11.97256,-125.16263 41.78453,-35.34298 105.62038,-27.04708 140.08603,14.31159 38.75203,46.50233 29.39771,117.10014 -16.65064,155.00942 -51.21706,42.16443 -128.58259,31.75042 -169.93282,-18.98968 -45.5793,-55.92951 -34.10469,-140.06711 21.32873,-184.8562 60.64026,-48.996133 151.55325,-36.460215 199.77959,23.66776 52.41448,65.34967 38.81671,163.0407 -26.0068,214.70299 C 278.97264,427.27714 174.50146,412.61709 119.40427,343.09727 60.149676,268.33177 75.872347,157.07871 150.08916,98.547487 229.56143,35.871524 347.59779,52.657096 409.56233,131.57142 475.66034,215.74991 457.81164,340.57075 374.19935,405.96798 285.31514,475.48863 153.70881,456.5766 84.879397,368.26597 12.649653,275.59259 31.412876,138.70404 122.5498,65.890399"
           id="path3338-4"
           inkscape:connector-curvature="0"
           sodipodi:nodetypes="cssssssssssssssssc" />
      </g>
      <path
         id="path3357"
         d="M 1088.3345,305.33511 A 241.28471,241.2847 0 0 1 847.04978,546.61981 241.28471,241.2847 0 0 1 605.76507,305.33511 241.28471,241.2847 0 0 1 847.04978,64.050398 241.28471,241.2847 0 0 1 1088.3345,305.33511 Z"
         style="fill:none;fill-opacity:0.89677417;stroke:#0000ff;stroke-width:0.53474456;stroke-linecap:round;stroke-linejoin:round;stroke-miterlimit:4;stroke-dasharray:none;stroke-dashoffset:0;stroke-opacity:1"
         inkscape:connector-curvature="0" />
      <path
         id="path4506-1"
         d="m 822.06269,333.67104 a 3.5433075,3.5433074 0 0 1 -3.5433,3.54331 3.5433075,3.5433074 0 0 1 -3.54331,-3.54331 3.5433075,3.5433074 0 0 1 3.54331,-3.5433 3.5433075,3.5433074 0 0 1 3.5433,3.5433 z"
         style="fill:none;fill-opacity:0.89677417;stroke:#0000ff;stroke-width:0.70866144;stroke-linecap:round;stroke-linejoin:round;stroke-miterlimit:4;stroke-dasharray:none;stroke-dashoffset:0;stroke-opacity:1"
         inkscape:connector-curvature="0" />
      <path
         id="path4506-7"
         d="m 881.725,281.86086 a 3.5433075,3.5433074 0 0 1 -3.5433,3.54331 3.5433075,3.5433074 0 0 1 -3.54331,-3.54331 3.5433075,3.5433074 0 0 1 3.54331,-3.5433 3.5433075,3.5433074 0 0 1 3.5433,3.5433 z"
         style="fill:none;fill-opacity:0.89677417;stroke:#0000ff;stroke-width:0.70866144;stroke-linecap:round;stroke-linejoin:round;stroke-miterlimit:4;stroke-dasharray:none;stroke-dashoffset:0;stroke-opacity:1"
         inkscape:connector-curvature="0" />
      <path
         id="path4506-15"
         d="m 982.85004,487.25323 a 3.5433075,3.5433074 0 0 1 -3.5433,3.54331 3.5433075,3.5433074 0 0 1 -3.54331,-3.54331 3.5433075,3.5433074 0 0 1 3.54331,-3.5433 3.5433075,3.5433074 0 0 1 3.5433,3.5433 z"
         style="fill:none;fill-opacity:0.89677417;stroke:#0000ff;stroke-width:0.70866144;stroke-linecap:round;stroke-linejoin:round;stroke-miterlimit:4;stroke-dasharray:none;stroke-dashoffset:0;stroke-opacity:1"
         inkscape:connector-curvature="0" />
      <path
         id="path4506-35"
         d="m 722.78569,127.63472 a 3.5433075,3.5433074 0 0 1 -3.5433,3.54331 3.5433075,3.5433074 0 0 1 -3.54331,-3.54331 3.5433075,3.5433074 0 0 1 3.54331,-3.5433 3.5433075,3.5433074 0 0 1 3.5433,3.5433 z"
         style="fill:none;fill-opacity:0.89677417;stroke:#0000ff;stroke-width:0.70866144;stroke-linecap:round;stroke-linejoin:round;stroke-miterlimit:4;stroke-dasharray:none;stroke-dashoffset:0;stroke-opacity:1"
         inkscape:connector-curvature="0" />
      <path
         sodipodi:nodetypes="ccccc"
         inkscape:connector-curvature="0"
         id="rect3362"
         d="m 848.42093,319.37785 -15.13332,-20.40851 11.77397,-7.67699 15.13332,20.40852 z"
         style="fill:none;fill-opacity:0.89677417;stroke:#0000ff;stroke-width:0.16730043;stroke-linecap:round;stroke-linejoin:round;stroke-miterlimit:4;stroke-dasharray:none;stroke-dashoffset:0;stroke-opacity:1" />
    </g>
    <path
       inkscape:connector-curvature="0"
       style="fill:none;fill-opacity:0.89677417;stroke:#0000ff;stroke-width:0.67090112;stroke-linecap:round;stroke-linejoin:round;stroke-miterlimit:4;stroke-dasharray:none;stroke-dashoffset:0;stroke-opacity:1"
       d="m 628.97821,530.50247 8.8644,-0.044 22.6751,412.0559 173.9335,21.3469 0,16.2347 -14.7488,0.017 -0.097,12.13179 -405.0757,0 0.087,-11.49329 -15.068,-0.3365 0,-16.554 173.701,-21.3492 23.3551,-411.8261 8.4167,-0.024 0,-46.13759 c 1.7072,-0.1325 5.2766,-3.4283 6.1384,-4.0356 1.0425,-0.7343 0.7534,-0.775 0.4822,-2.9509 -3.1062,-1.74 -5.9133,-5.9791 -5.9133,-9.3953 0,-4.9082 5.7497,-9.842 11.1229,-9.842 5.3732,0 11.4713,5.2521 11.4713,10.1602 0,3.2559 -2.9621,7.0577 -6.1182,8.9661 -0.5566,2.2838 -0.8457,2.3246 0.1967,3.0589 0.8619,0.6073 4.4313,3.5947 6.3652,3.7287 z"
       id="rect4302-9-5-4-53"
       sodipodi:nodetypes="cccccccccccccccccssscccc" />
    <path
       inkscape:connector-curvature="0"
       style="fill:none;fill-opacity:0.89677417;stroke:#0000ff;stroke-width:0.7135542;stroke-linecap:round;stroke-linejoin:round;stroke-miterlimit:4;stroke-dasharray:none;stroke-dashoffset:0;stroke-opacity:1"
       d="m 832.38071,703.67684 c 1.1298,-0.76639 0.8165,-0.80885 0.5226,-3.07994 -3.3665,-1.81601 -4.6372,-6.24044 -4.6372,-9.80596 0,-5.12273 4.4598,-10.27213 10.2835,-10.27213 5.8235,0 10.6611,5.48169 10.6611,10.60429 0,3.3982 -1.4387,7.36622 -4.8593,9.35796 -0.6033,2.38367 -0.9166,2.42623 0.2131,3.19264 0.9342,0.63378 6.7746,3.88083 6.7746,3.88083 18.6496,11.76347 48.5351,31.97978 52.6546,28.98678 5.9596,-4.32987 -14.729,-65.59831 -12.4526,-72.6042 2.2763,-7.00589 55.0264,-44.41267 52.75,-51.41858 -2.2763,-7.00589 -66.9392,-6.26291 -72.8987,-10.5928 -5.9596,-4.32989 -25.2349,-66.05746 -32.6014,-66.05746 -7.3664,0 -26.6416,61.72757 -32.6012,66.05746 -5.9595,4.32989 -70.6224,3.58691 -72.8987,10.5928 -2.2764,7.00591 50.4737,44.41269 52.75,51.41858 2.2764,7.00589 -18.4122,68.27432 -12.4526,72.6042 4.1454,3.0118 33.3247,-16.72507 52.2106,-28.50951 0,0 5.6475,-3.72118 6.5816,-4.35496 z"
       id="rect4302-9-5-4-0-7"
       sodipodi:nodetypes="ccssscccssssssssscc" />
  </g>
</svg>
